<mxfile host="app.diagrams.net" agent="Mozilla/5.0 (Windows NT 10.0; Win64; x64) AppleWebKit/537.36 (KHTML, like Gecko) Chrome/131.0.0.0 Safari/537.36 Edg/131.0.0.0" version="26.0.5">
  <diagram id="C5RBs43oDa-KdzZeNtuy" name="Page-1">
    <mxGraphModel dx="1661" dy="912" grid="1" gridSize="10" guides="1" tooltips="1" connect="1" arrows="1" fold="1" page="1" pageScale="1" pageWidth="827" pageHeight="1169" math="0" shadow="0">
      <root>
        <mxCell id="WIyWlLk6GJQsqaUBKTNV-0" />
        <mxCell id="WIyWlLk6GJQsqaUBKTNV-1" parent="WIyWlLk6GJQsqaUBKTNV-0" />
        <mxCell id="0-VIcdxlD-NJ7jsyh1mJ-48" style="edgeStyle=orthogonalEdgeStyle;rounded=0;orthogonalLoop=1;jettySize=auto;html=1;exitX=0.5;exitY=1;exitDx=0;exitDy=0;fontSize=15;" edge="1" parent="WIyWlLk6GJQsqaUBKTNV-1" source="WIyWlLk6GJQsqaUBKTNV-7" target="0-VIcdxlD-NJ7jsyh1mJ-18">
          <mxGeometry relative="1" as="geometry" />
        </mxCell>
        <mxCell id="WIyWlLk6GJQsqaUBKTNV-7" value="발사체&amp;nbsp;&lt;div&gt;플레이어 앞에 대기&lt;/div&gt;" style="rounded=1;whiteSpace=wrap;html=1;fontSize=15;glass=0;strokeWidth=1;shadow=0;" parent="WIyWlLk6GJQsqaUBKTNV-1" vertex="1">
          <mxGeometry x="246.25" y="140" width="147.5" height="60" as="geometry" />
        </mxCell>
        <mxCell id="0-VIcdxlD-NJ7jsyh1mJ-6" style="edgeStyle=orthogonalEdgeStyle;rounded=0;orthogonalLoop=1;jettySize=auto;html=1;exitX=0.5;exitY=1;exitDx=0;exitDy=0;fontSize=15;" edge="1" parent="WIyWlLk6GJQsqaUBKTNV-1" source="0-VIcdxlD-NJ7jsyh1mJ-0" target="WIyWlLk6GJQsqaUBKTNV-7">
          <mxGeometry relative="1" as="geometry">
            <mxPoint x="320" y="150" as="targetPoint" />
          </mxGeometry>
        </mxCell>
        <mxCell id="0-VIcdxlD-NJ7jsyh1mJ-27" value="&lt;span&gt;O&lt;/span&gt;" style="edgeLabel;html=1;align=center;verticalAlign=middle;resizable=0;points=[];fontSize=15;" vertex="1" connectable="0" parent="0-VIcdxlD-NJ7jsyh1mJ-6">
          <mxGeometry x="-0.24" y="-1" relative="1" as="geometry">
            <mxPoint as="offset" />
          </mxGeometry>
        </mxCell>
        <mxCell id="0-VIcdxlD-NJ7jsyh1mJ-30" value="X" style="edgeStyle=orthogonalEdgeStyle;rounded=0;orthogonalLoop=1;jettySize=auto;html=1;exitX=0;exitY=0.5;exitDx=0;exitDy=0;fontSize=15;" edge="1" parent="WIyWlLk6GJQsqaUBKTNV-1" source="0-VIcdxlD-NJ7jsyh1mJ-0" target="0-VIcdxlD-NJ7jsyh1mJ-26">
          <mxGeometry relative="1" as="geometry" />
        </mxCell>
        <mxCell id="0-VIcdxlD-NJ7jsyh1mJ-0" value="손 자세&amp;nbsp;&lt;div&gt;준비&amp;nbsp;&lt;span style=&quot;background-color: transparent; color: light-dark(rgb(0, 0, 0), rgb(255, 255, 255));&quot;&gt;됐는가?&amp;nbsp;&lt;/span&gt;&lt;/div&gt;" style="rounded=1;whiteSpace=wrap;html=1;fontSize=15;glass=0;strokeWidth=1;shadow=0;" vertex="1" parent="WIyWlLk6GJQsqaUBKTNV-1">
          <mxGeometry x="260" y="60" width="120" height="40" as="geometry" />
        </mxCell>
        <mxCell id="0-VIcdxlD-NJ7jsyh1mJ-24" value="O" style="edgeStyle=orthogonalEdgeStyle;rounded=0;orthogonalLoop=1;jettySize=auto;html=1;exitX=0.5;exitY=1;exitDx=0;exitDy=0;fontSize=15;" edge="1" parent="WIyWlLk6GJQsqaUBKTNV-1" source="0-VIcdxlD-NJ7jsyh1mJ-18" target="0-VIcdxlD-NJ7jsyh1mJ-21">
          <mxGeometry relative="1" as="geometry" />
        </mxCell>
        <mxCell id="0-VIcdxlD-NJ7jsyh1mJ-49" value="X" style="edgeStyle=orthogonalEdgeStyle;rounded=0;orthogonalLoop=1;jettySize=auto;html=1;exitX=0.994;exitY=0.56;exitDx=0;exitDy=0;entryX=1;entryY=0.5;entryDx=0;entryDy=0;fontSize=15;exitPerimeter=0;" edge="1" parent="WIyWlLk6GJQsqaUBKTNV-1" source="0-VIcdxlD-NJ7jsyh1mJ-18" target="0-VIcdxlD-NJ7jsyh1mJ-0">
          <mxGeometry x="0.0549" relative="1" as="geometry">
            <mxPoint x="427.69" y="180" as="targetPoint" />
            <mxPoint x="418.94" y="280" as="sourcePoint" />
            <Array as="points">
              <mxPoint x="440" y="274" />
              <mxPoint x="440" y="80" />
            </Array>
            <mxPoint as="offset" />
          </mxGeometry>
        </mxCell>
        <mxCell id="0-VIcdxlD-NJ7jsyh1mJ-18" value="다른 손 자세도&amp;nbsp;&lt;div&gt;준비 됐는가?&lt;/div&gt;" style="rounded=1;whiteSpace=wrap;html=1;fontSize=15;glass=0;strokeWidth=1;shadow=0;" vertex="1" parent="WIyWlLk6GJQsqaUBKTNV-1">
          <mxGeometry x="255" y="240" width="130" height="60" as="geometry" />
        </mxCell>
        <mxCell id="0-VIcdxlD-NJ7jsyh1mJ-39" value="" style="edgeStyle=orthogonalEdgeStyle;rounded=0;orthogonalLoop=1;jettySize=auto;html=1;fontSize=15;" edge="1" parent="WIyWlLk6GJQsqaUBKTNV-1" source="0-VIcdxlD-NJ7jsyh1mJ-21" target="0-VIcdxlD-NJ7jsyh1mJ-38">
          <mxGeometry relative="1" as="geometry" />
        </mxCell>
        <mxCell id="0-VIcdxlD-NJ7jsyh1mJ-21" value="&lt;div&gt;발사체&lt;/div&gt;앞으로 나아감" style="rounded=1;whiteSpace=wrap;html=1;fontSize=15;glass=0;strokeWidth=1;shadow=0;" vertex="1" parent="WIyWlLk6GJQsqaUBKTNV-1">
          <mxGeometry x="260" y="350" width="120" height="60" as="geometry" />
        </mxCell>
        <mxCell id="0-VIcdxlD-NJ7jsyh1mJ-26" value="준비 해제" style="rounded=1;whiteSpace=wrap;html=1;fontSize=15;glass=0;strokeWidth=1;shadow=0;" vertex="1" parent="WIyWlLk6GJQsqaUBKTNV-1">
          <mxGeometry x="60" y="60" width="120" height="40" as="geometry" />
        </mxCell>
        <mxCell id="0-VIcdxlD-NJ7jsyh1mJ-42" value="O" style="edgeStyle=orthogonalEdgeStyle;rounded=0;orthogonalLoop=1;jettySize=auto;html=1;exitX=0.5;exitY=1;exitDx=0;exitDy=0;entryX=0.5;entryY=0;entryDx=0;entryDy=0;fontSize=15;" edge="1" parent="WIyWlLk6GJQsqaUBKTNV-1" source="0-VIcdxlD-NJ7jsyh1mJ-38" target="0-VIcdxlD-NJ7jsyh1mJ-43">
          <mxGeometry relative="1" as="geometry">
            <mxPoint x="320" y="590" as="targetPoint" />
          </mxGeometry>
        </mxCell>
        <mxCell id="0-VIcdxlD-NJ7jsyh1mJ-46" value="X" style="edgeStyle=orthogonalEdgeStyle;rounded=0;orthogonalLoop=1;jettySize=auto;html=1;exitX=1;exitY=0.5;exitDx=0;exitDy=0;entryX=0;entryY=0.5;entryDx=0;entryDy=0;fontSize=15;" edge="1" parent="WIyWlLk6GJQsqaUBKTNV-1" source="0-VIcdxlD-NJ7jsyh1mJ-38" target="0-VIcdxlD-NJ7jsyh1mJ-54">
          <mxGeometry x="-0.1892" relative="1" as="geometry">
            <mxPoint x="510" y="490" as="targetPoint" />
            <Array as="points">
              <mxPoint x="490" y="490" />
              <mxPoint x="490" y="490" />
            </Array>
            <mxPoint as="offset" />
          </mxGeometry>
        </mxCell>
        <mxCell id="0-VIcdxlD-NJ7jsyh1mJ-38" value="충돌!&lt;div&gt;가져올 수 있는가?&lt;/div&gt;" style="ellipse;whiteSpace=wrap;html=1;fontSize=15;rounded=1;glass=0;strokeWidth=1;shadow=0;" vertex="1" parent="WIyWlLk6GJQsqaUBKTNV-1">
          <mxGeometry x="215" y="440" width="210" height="100" as="geometry" />
        </mxCell>
        <mxCell id="0-VIcdxlD-NJ7jsyh1mJ-43" value="충돌된 오브젝트&lt;div&gt;가져옴&lt;/div&gt;" style="rounded=1;whiteSpace=wrap;html=1;fontSize=15;glass=0;strokeWidth=1;shadow=0;" vertex="1" parent="WIyWlLk6GJQsqaUBKTNV-1">
          <mxGeometry x="230" y="600" width="180" height="80" as="geometry" />
        </mxCell>
        <mxCell id="0-VIcdxlD-NJ7jsyh1mJ-55" style="edgeStyle=orthogonalEdgeStyle;rounded=0;orthogonalLoop=1;jettySize=auto;html=1;exitX=0.5;exitY=0;exitDx=0;exitDy=0;fontSize=15;entryX=0.5;entryY=1;entryDx=0;entryDy=0;" edge="1" parent="WIyWlLk6GJQsqaUBKTNV-1" source="0-VIcdxlD-NJ7jsyh1mJ-54" target="0-VIcdxlD-NJ7jsyh1mJ-60">
          <mxGeometry relative="1" as="geometry">
            <mxPoint x="590" y="380" as="targetPoint" />
          </mxGeometry>
        </mxCell>
        <mxCell id="0-VIcdxlD-NJ7jsyh1mJ-56" value="X" style="edgeLabel;html=1;align=center;verticalAlign=middle;resizable=0;points=[];fontSize=15;" vertex="1" connectable="0" parent="0-VIcdxlD-NJ7jsyh1mJ-55">
          <mxGeometry x="-0.1556" y="-1" relative="1" as="geometry">
            <mxPoint x="-1" y="4" as="offset" />
          </mxGeometry>
        </mxCell>
        <mxCell id="0-VIcdxlD-NJ7jsyh1mJ-59" value="O" style="edgeStyle=orthogonalEdgeStyle;rounded=0;orthogonalLoop=1;jettySize=auto;html=1;exitX=0.5;exitY=1;exitDx=0;exitDy=0;entryX=0.5;entryY=0;entryDx=0;entryDy=0;fontSize=15;" edge="1" parent="WIyWlLk6GJQsqaUBKTNV-1" source="0-VIcdxlD-NJ7jsyh1mJ-54" target="0-VIcdxlD-NJ7jsyh1mJ-58">
          <mxGeometry relative="1" as="geometry" />
        </mxCell>
        <mxCell id="0-VIcdxlD-NJ7jsyh1mJ-54" value="특정 버튼 인가?" style="rounded=1;whiteSpace=wrap;html=1;fontSize=15;glass=0;strokeWidth=1;shadow=0;" vertex="1" parent="WIyWlLk6GJQsqaUBKTNV-1">
          <mxGeometry x="510" y="460" width="160" height="60" as="geometry" />
        </mxCell>
        <mxCell id="0-VIcdxlD-NJ7jsyh1mJ-58" value="버튼 기능 실행" style="rounded=1;whiteSpace=wrap;html=1;fontSize=15;glass=0;strokeWidth=1;shadow=0;" vertex="1" parent="WIyWlLk6GJQsqaUBKTNV-1">
          <mxGeometry x="530" y="610" width="120" height="60" as="geometry" />
        </mxCell>
        <mxCell id="0-VIcdxlD-NJ7jsyh1mJ-61" value="" style="edgeStyle=orthogonalEdgeStyle;rounded=0;orthogonalLoop=1;jettySize=auto;html=1;exitX=0;exitY=0.5;exitDx=0;exitDy=0;fontSize=15;" edge="1" parent="WIyWlLk6GJQsqaUBKTNV-1" source="0-VIcdxlD-NJ7jsyh1mJ-60" target="0-VIcdxlD-NJ7jsyh1mJ-21">
          <mxGeometry relative="1" as="geometry" />
        </mxCell>
        <mxCell id="0-VIcdxlD-NJ7jsyh1mJ-62" value="O" style="edgeLabel;html=1;align=center;verticalAlign=middle;resizable=0;points=[];fontSize=15;" vertex="1" connectable="0" parent="0-VIcdxlD-NJ7jsyh1mJ-61">
          <mxGeometry x="0.0742" relative="1" as="geometry">
            <mxPoint as="offset" />
          </mxGeometry>
        </mxCell>
        <mxCell id="0-VIcdxlD-NJ7jsyh1mJ-65" value="" style="edgeStyle=orthogonalEdgeStyle;rounded=0;orthogonalLoop=1;jettySize=auto;html=1;fontSize=15;" edge="1" parent="WIyWlLk6GJQsqaUBKTNV-1" source="0-VIcdxlD-NJ7jsyh1mJ-60" target="0-VIcdxlD-NJ7jsyh1mJ-64">
          <mxGeometry relative="1" as="geometry" />
        </mxCell>
        <mxCell id="0-VIcdxlD-NJ7jsyh1mJ-66" value="X" style="edgeLabel;html=1;align=center;verticalAlign=middle;resizable=0;points=[];fontSize=15;" vertex="1" connectable="0" parent="0-VIcdxlD-NJ7jsyh1mJ-65">
          <mxGeometry x="-0.1082" y="-1" relative="1" as="geometry">
            <mxPoint as="offset" />
          </mxGeometry>
        </mxCell>
        <mxCell id="0-VIcdxlD-NJ7jsyh1mJ-60" value="isStatic?" style="rounded=1;whiteSpace=wrap;html=1;fontSize=15;glass=0;strokeWidth=1;shadow=0;" vertex="1" parent="WIyWlLk6GJQsqaUBKTNV-1">
          <mxGeometry x="510" y="355" width="160" height="50" as="geometry" />
        </mxCell>
        <mxCell id="0-VIcdxlD-NJ7jsyh1mJ-64" value="플레이어 앞으로&amp;nbsp;&lt;div&gt;발사체만 가져옴&lt;/div&gt;" style="whiteSpace=wrap;html=1;fontSize=15;rounded=1;glass=0;strokeWidth=1;shadow=0;" vertex="1" parent="WIyWlLk6GJQsqaUBKTNV-1">
          <mxGeometry x="512.5" y="235" width="155" height="70" as="geometry" />
        </mxCell>
      </root>
    </mxGraphModel>
  </diagram>
</mxfile>
